<?xml version="1.0" encoding="utf-8" standalone="no"?>
<!DOCTYPE svg PUBLIC "-//W3C//DTD SVG 1.1//EN"
  "http://www.w3.org/Graphics/SVG/1.1/DTD/svg11.dtd">
<svg height="576pt" version="1.1" viewBox="0 0 1008 576" width="1008pt" xmlns="http://www.w3.org/2000/svg" xmlns:xlink="http://www.w3.org/1999/xlink">
 <metadata>
  <rdf:RDF xmlns:cc="http://creativecommons.org/ns#" xmlns:dc="http://purl.org/dc/elements/1.1/" xmlns:rdf="http://www.w3.org/1999/02/22-rdf-syntax-ns#">
   <cc:Work>
    <dc:type rdf:resource="http://purl.org/dc/dcmitype/StillImage"/>
    <dc:date>2026-03-26T17:20:43.756009</dc:date>
    <dc:format>image/svg+xml</dc:format>
    <dc:creator>
     <cc:Agent>
      <dc:title>Matplotlib v3.4.3, https://matplotlib.org/</dc:title>
     </cc:Agent>
    </dc:creator>
   </cc:Work>
  </rdf:RDF>
 </metadata>
 <defs>
  <style type="text/css">*{stroke-linecap:butt;stroke-linejoin:round;}</style>
 </defs>
 <g id="figure_1">
  <g id="patch_1">
   <path d="M 0 576 
L 1008 576 
L 1008 0 
L 0 0 
z
" style="fill:#ffffff;"/>
  </g>
  <g id="axes_1">
   <g id="line2d_1">
    <path clip-path="url(#pb05e26cabe)" d="M 131.995041 245.52 
L 139.98843 245.52 
L 140.587934 175.763055 
L 141.147471 133.583871 
L 141.707008 106.723091 
L 142.226579 91.405893 
L 142.706182 83.112543 
L 143.105851 79.339906 
L 143.465554 77.786431 
L 143.705355 77.52 
L 143.865223 77.628111 
L 144.105025 78.158429 
L 144.464727 79.644332 
L 144.984298 82.900911 
L 145.783636 89.568592 
L 147.262413 104.23072 
L 150.140033 132.642659 
L 151.938545 148.118103 
L 153.657124 161.045936 
L 155.335736 172.055207 
L 157.014347 181.64348 
L 158.692959 189.985168 
L 160.37157 197.239198 
L 162.050182 203.546288 
L 163.76876 209.151099 
L 165.487339 214.007565 
L 167.205917 218.215555 
L 168.964463 221.940373 
L 170.723008 225.157061 
L 172.521521 227.993456 
L 174.36 230.484964 
L 176.238446 232.665209 
L 178.196826 234.602323 
L 180.23514 236.30914 
L 182.393355 237.826443 
L 184.671471 239.157743 
L 187.149421 240.345635 
L 189.827207 241.381294 
L 192.824727 242.296772 
L 196.18195 243.083937 
L 200.058744 243.756942 
L 204.614975 244.314313 
L 210.17038 244.761402 
L 217.324463 245.102283 
L 227.276231 245.337855 
L 243.50281 245.472938 
L 251.895868 245.49663 
L 251.895868 245.49663 
" style="fill:none;stroke:#000000;stroke-linecap:square;stroke-width:2;"/>
   </g>
   <g id="line2d_2">
    <path clip-path="url(#pb05e26cabe)" d="M 126 245.52 
L 257.890909 245.52 
" style="fill:none;stroke:#808080;stroke-dasharray:1,1.65;stroke-dashoffset:0;stroke-opacity:0.7;"/>
   </g>
   <g id="text_1">
    <!-- Unitary Input -->
    <g transform="translate(146.93233 59.12)scale(0.12 -0.12)">
     <defs>
      <path d="M 588 4666 
L 1791 4666 
L 1791 1869 
Q 1791 1291 1980 1042 
Q 2169 794 2597 794 
Q 3028 794 3217 1042 
Q 3406 1291 3406 1869 
L 3406 4666 
L 4609 4666 
L 4609 1869 
Q 4609 878 4112 393 
Q 3616 -91 2597 -91 
Q 1581 -91 1084 393 
Q 588 878 588 1869 
L 588 4666 
z
" id="DejaVuSans-Bold-55" transform="scale(0.015625)"/>
      <path d="M 4056 2131 
L 4056 0 
L 2931 0 
L 2931 347 
L 2931 1631 
Q 2931 2084 2911 2256 
Q 2891 2428 2841 2509 
Q 2775 2619 2662 2680 
Q 2550 2741 2406 2741 
Q 2056 2741 1856 2470 
Q 1656 2200 1656 1722 
L 1656 0 
L 538 0 
L 538 3500 
L 1656 3500 
L 1656 2988 
Q 1909 3294 2193 3439 
Q 2478 3584 2822 3584 
Q 3428 3584 3742 3212 
Q 4056 2841 4056 2131 
z
" id="DejaVuSans-Bold-6e" transform="scale(0.015625)"/>
      <path d="M 538 3500 
L 1656 3500 
L 1656 0 
L 538 0 
L 538 3500 
z
M 538 4863 
L 1656 4863 
L 1656 3950 
L 538 3950 
L 538 4863 
z
" id="DejaVuSans-Bold-69" transform="scale(0.015625)"/>
      <path d="M 1759 4494 
L 1759 3500 
L 2913 3500 
L 2913 2700 
L 1759 2700 
L 1759 1216 
Q 1759 972 1856 886 
Q 1953 800 2241 800 
L 2816 800 
L 2816 0 
L 1856 0 
Q 1194 0 917 276 
Q 641 553 641 1216 
L 641 2700 
L 84 2700 
L 84 3500 
L 641 3500 
L 641 4494 
L 1759 4494 
z
" id="DejaVuSans-Bold-74" transform="scale(0.015625)"/>
      <path d="M 2106 1575 
Q 1756 1575 1579 1456 
Q 1403 1338 1403 1106 
Q 1403 894 1545 773 
Q 1688 653 1941 653 
Q 2256 653 2472 879 
Q 2688 1106 2688 1447 
L 2688 1575 
L 2106 1575 
z
M 3816 1997 
L 3816 0 
L 2688 0 
L 2688 519 
Q 2463 200 2181 54 
Q 1900 -91 1497 -91 
Q 953 -91 614 226 
Q 275 544 275 1050 
Q 275 1666 698 1953 
Q 1122 2241 2028 2241 
L 2688 2241 
L 2688 2328 
Q 2688 2594 2478 2717 
Q 2269 2841 1825 2841 
Q 1466 2841 1156 2769 
Q 847 2697 581 2553 
L 581 3406 
Q 941 3494 1303 3539 
Q 1666 3584 2028 3584 
Q 2975 3584 3395 3211 
Q 3816 2838 3816 1997 
z
" id="DejaVuSans-Bold-61" transform="scale(0.015625)"/>
      <path d="M 3138 2547 
Q 2991 2616 2845 2648 
Q 2700 2681 2553 2681 
Q 2122 2681 1889 2404 
Q 1656 2128 1656 1613 
L 1656 0 
L 538 0 
L 538 3500 
L 1656 3500 
L 1656 2925 
Q 1872 3269 2151 3426 
Q 2431 3584 2822 3584 
Q 2878 3584 2943 3579 
Q 3009 3575 3134 3559 
L 3138 2547 
z
" id="DejaVuSans-Bold-72" transform="scale(0.015625)"/>
      <path d="M 78 3500 
L 1197 3500 
L 2138 1125 
L 2938 3500 
L 4056 3500 
L 2584 -331 
Q 2363 -916 2067 -1148 
Q 1772 -1381 1288 -1381 
L 641 -1381 
L 641 -647 
L 991 -647 
Q 1275 -647 1404 -556 
Q 1534 -466 1606 -231 
L 1638 -134 
L 78 3500 
z
" id="DejaVuSans-Bold-79" transform="scale(0.015625)"/>
      <path id="DejaVuSans-Bold-20" transform="scale(0.015625)"/>
      <path d="M 588 4666 
L 1791 4666 
L 1791 0 
L 588 0 
L 588 4666 
z
" id="DejaVuSans-Bold-49" transform="scale(0.015625)"/>
      <path d="M 1656 506 
L 1656 -1331 
L 538 -1331 
L 538 3500 
L 1656 3500 
L 1656 2988 
Q 1888 3294 2169 3439 
Q 2450 3584 2816 3584 
Q 3463 3584 3878 3070 
Q 4294 2556 4294 1747 
Q 4294 938 3878 423 
Q 3463 -91 2816 -91 
Q 2450 -91 2169 54 
Q 1888 200 1656 506 
z
M 2400 2772 
Q 2041 2772 1848 2508 
Q 1656 2244 1656 1747 
Q 1656 1250 1848 986 
Q 2041 722 2400 722 
Q 2759 722 2948 984 
Q 3138 1247 3138 1747 
Q 3138 2247 2948 2509 
Q 2759 2772 2400 2772 
z
" id="DejaVuSans-Bold-70" transform="scale(0.015625)"/>
      <path d="M 500 1363 
L 500 3500 
L 1625 3500 
L 1625 3150 
Q 1625 2866 1622 2436 
Q 1619 2006 1619 1863 
Q 1619 1441 1641 1255 
Q 1663 1069 1716 984 
Q 1784 875 1895 815 
Q 2006 756 2150 756 
Q 2500 756 2700 1025 
Q 2900 1294 2900 1772 
L 2900 3500 
L 4019 3500 
L 4019 0 
L 2900 0 
L 2900 506 
Q 2647 200 2364 54 
Q 2081 -91 1741 -91 
Q 1134 -91 817 281 
Q 500 653 500 1363 
z
" id="DejaVuSans-Bold-75" transform="scale(0.015625)"/>
     </defs>
     <use xlink:href="#DejaVuSans-Bold-55"/>
     <use x="81.201172" xlink:href="#DejaVuSans-Bold-6e"/>
     <use x="152.392578" xlink:href="#DejaVuSans-Bold-69"/>
     <use x="186.669922" xlink:href="#DejaVuSans-Bold-74"/>
     <use x="234.472656" xlink:href="#DejaVuSans-Bold-61"/>
     <use x="301.953125" xlink:href="#DejaVuSans-Bold-72"/>
     <use x="351.269531" xlink:href="#DejaVuSans-Bold-79"/>
     <use x="416.455078" xlink:href="#DejaVuSans-Bold-20"/>
     <use x="451.269531" xlink:href="#DejaVuSans-Bold-49"/>
     <use x="488.476562" xlink:href="#DejaVuSans-Bold-6e"/>
     <use x="559.667969" xlink:href="#DejaVuSans-Bold-70"/>
     <use x="631.25" xlink:href="#DejaVuSans-Bold-75"/>
     <use x="702.441406" xlink:href="#DejaVuSans-Bold-74"/>
    </g>
   </g>
  </g>
  <g id="axes_2">
   <g id="line2d_3">
    <path clip-path="url(#pc499b00357)" d="M 305.390083 245.52 
L 328.140496 245.52 
L 329.164264 227.139634 
L 330.074281 214.39532 
L 330.984298 204.384188 
L 331.894314 196.599666 
L 332.804331 190.627298 
L 333.714347 186.128044 
L 334.510612 183.180315 
L 335.306876 180.993713 
L 336.10314 179.439407 
L 336.785653 178.528044 
L 337.468165 177.943934 
L 338.150678 177.637527 
L 338.83319 177.566253 
L 339.629455 177.731798 
L 340.539471 178.189372 
L 341.56324 178.97453 
L 342.814512 180.226486 
L 344.520793 182.289102 
L 346.909587 185.568284 
L 357.147273 200.008683 
L 360.559835 204.260892 
L 363.858645 208.026128 
L 367.157455 211.46322 
L 370.570017 214.695423 
L 373.982579 217.624647 
L 377.508893 220.36125 
L 381.148959 222.905749 
L 384.902777 225.260955 
L 385.016529 225.328364 
L 386.040298 207.544683 
L 386.950314 195.315946 
L 387.860331 185.806833 
L 388.770347 178.511127 
L 389.680364 173.014719 
L 390.476628 169.413499 
L 391.272893 166.741946 
L 392.069157 164.842702 
L 392.751669 163.728882 
L 393.434182 163.014786 
L 394.116694 162.639891 
L 394.799207 162.552202 
L 395.481719 162.707061 
L 396.277983 163.143436 
L 397.188 163.916889 
L 398.325521 165.204174 
L 399.804298 167.2616 
L 401.738083 170.366095 
L 405.150645 176.345927 
L 410.724496 186.058729 
L 414.25081 191.730379 
L 417.54962 196.613255 
L 420.734678 200.936581 
L 423.919736 204.892154 
L 427.104793 208.503937 
L 430.403603 211.910298 
L 433.702413 215.005036 
L 437.114975 217.907876 
L 440.641289 220.618158 
L 441.892562 221.514581 
L 442.802579 205.580504 
L 443.712595 193.068583 
L 444.622612 183.344441 
L 445.532628 175.889061 
L 446.442645 170.277871 
L 447.238909 166.606274 
L 448.035174 163.887399 
L 448.831438 161.959916 
L 449.51395 160.834542 
L 450.196463 160.11868 
L 450.878975 159.750283 
L 451.561488 159.676047 
L 452.244 159.850189 
L 453.040264 160.315149 
L 453.950281 161.127732 
L 455.087802 162.471319 
L 456.566579 164.610499 
L 458.500364 167.830495 
L 461.912926 174.021952 
L 467.373025 183.870243 
L 470.899339 189.748239 
L 474.198149 194.809991 
L 477.383207 199.292223 
L 480.568264 203.393441 
L 483.753322 207.138334 
L 487.052132 210.670301 
L 490.350942 213.879186 
L 493.763504 216.889112 
L 497.289818 219.699383 
L 500.929884 222.311531 
L 504.683702 224.728947 
L 508.551273 226.956596 
L 512.646347 229.055715 
L 516.968926 231.014506 
L 521.519008 232.825175 
L 526.296595 234.483648 
L 531.415438 236.020923 
L 536.875537 237.425421 
L 542.790645 238.713614 
L 549.274512 239.891397 
L 556.32714 240.942309 
L 564.176033 241.882871 
L 573.048694 242.715586 
L 583.172628 243.435502 
L 595.002843 244.046175 
L 609.221851 244.548394 
L 626.967174 244.942361 
L 646.646281 245.195501 
L 646.646281 245.195501 
" style="fill:none;stroke:#5b84b1;stroke-dasharray:7.4,3.2;stroke-dashoffset:0;stroke-width:2;"/>
   </g>
   <g id="line2d_4">
    <path clip-path="url(#pc499b00357)" d="M 305.390083 245.52 
L 328.140496 245.52 
L 329.164264 227.139634 
L 330.074281 214.39532 
L 330.984298 204.384188 
L 331.894314 196.599666 
L 332.804331 190.627298 
L 333.714347 186.128044 
L 334.510612 183.180315 
L 335.306876 180.993713 
L 336.10314 179.439407 
L 336.785653 178.528044 
L 337.468165 177.943934 
L 338.150678 177.637527 
L 338.83319 177.566253 
L 339.629455 177.731798 
L 340.539471 178.189372 
L 341.56324 178.97453 
L 342.814512 180.226486 
L 344.520793 182.289102 
L 346.909587 185.568284 
L 357.147273 200.008683 
L 360.559835 204.260892 
L 363.858645 208.026128 
L 367.157455 211.46322 
L 370.570017 214.695423 
L 373.982579 217.624647 
L 377.508893 220.36125 
L 381.148959 222.905749 
L 384.902777 225.260955 
L 385.016529 225.328364 
L 386.040298 198.3545 
L 386.950314 179.753605 
L 387.860331 165.238927 
L 388.770347 154.05096 
L 389.680364 145.568368 
L 390.476628 139.963446 
L 391.272893 135.757708 
L 392.069157 132.715007 
L 392.751669 130.881695 
L 393.434182 129.651186 
L 394.002942 129.020298 
L 394.571702 128.699004 
L 395.140463 128.647035 
L 395.709223 128.828915 
L 396.391736 129.312132 
L 397.188 130.182591 
L 398.211769 131.691522 
L 399.463041 133.985889 
L 401.05557 137.397599 
L 403.444364 143.097597 
L 412.544529 165.309993 
L 415.843339 172.540516 
L 418.914645 178.747649 
L 421.98595 184.456925 
L 425.057256 189.693335 
L 428.128562 194.488486 
L 431.199868 198.875726 
L 434.271174 202.887807 
L 437.456231 206.685448 
L 440.641289 210.145345 
L 441.892562 211.418763 
L 442.916331 173.827737 
L 443.826347 147.935433 
L 444.736364 127.759913 
L 445.64638 112.237973 
L 446.556397 100.499843 
L 447.352661 92.770294 
L 448.148926 86.996895 
L 448.94519 82.849105 
L 449.627702 80.376403 
L 450.310215 78.745765 
L 450.878975 77.937857 
L 451.333983 77.605512 
L 451.788992 77.520418 
L 452.244 77.656191 
L 452.81276 78.10041 
L 453.495273 78.981924 
L 454.291537 80.412853 
L 455.315306 82.762497 
L 456.566579 86.220091 
L 458.27286 91.633482 
L 460.889157 100.760756 
L 468.169289 126.479163 
L 471.468099 137.152592 
L 474.539405 146.343023 
L 477.496959 154.508556 
L 480.454512 162.028647 
L 483.412066 168.941376 
L 486.36962 175.28907 
L 489.327174 181.114411 
L 492.284727 186.458557 
L 495.242281 191.360304 
L 498.313587 196.02103 
L 501.384893 200.280973 
L 504.56995 204.312036 
L 507.755008 207.983988 
L 511.053818 211.442561 
L 514.352628 214.582481 
L 517.76519 217.526563 
L 521.291504 220.274776 
L 524.93157 222.828953 
L 528.685388 225.192585 
L 532.666711 227.431003 
L 536.761785 229.476499 
L 541.084364 231.385237 
L 545.634446 233.149633 
L 550.412033 234.765719 
L 555.530876 236.263705 
L 561.104727 237.658554 
L 567.133587 238.931644 
L 573.617455 240.071699 
L 580.783835 241.103693 
L 588.746479 242.022772 
L 597.732893 242.832431 
L 608.084331 243.535625 
L 620.255802 244.130926 
L 634.929818 244.616395 
L 646.646281 244.878981 
L 646.646281 244.878981 
" style="fill:none;stroke:#fc766a;stroke-linecap:square;stroke-width:2;"/>
   </g>
   <g id="line2d_5">
    <path clip-path="url(#pc499b00357)" d="M 288.327273 245.52 
L 663.709091 245.52 
" style="fill:none;stroke:#808080;stroke-dasharray:1,1.65;stroke-dashoffset:0;stroke-opacity:0.7;"/>
   </g>
   <g id="text_2">
    <!-- Supralinear Comparison (ISI 25ms) -->
    <g transform="translate(357.850994 59.12)scale(0.12 -0.12)">
     <defs>
      <path d="M 3834 4519 
L 3834 3531 
Q 3450 3703 3084 3790 
Q 2719 3878 2394 3878 
Q 1963 3878 1756 3759 
Q 1550 3641 1550 3391 
Q 1550 3203 1689 3098 
Q 1828 2994 2194 2919 
L 2706 2816 
Q 3484 2659 3812 2340 
Q 4141 2022 4141 1434 
Q 4141 663 3683 286 
Q 3225 -91 2284 -91 
Q 1841 -91 1394 -6 
Q 947 78 500 244 
L 500 1259 
Q 947 1022 1364 901 
Q 1781 781 2169 781 
Q 2563 781 2772 912 
Q 2981 1044 2981 1288 
Q 2981 1506 2839 1625 
Q 2697 1744 2272 1838 
L 1806 1941 
Q 1106 2091 782 2419 
Q 459 2747 459 3303 
Q 459 4000 909 4375 
Q 1359 4750 2203 4750 
Q 2588 4750 2994 4692 
Q 3400 4634 3834 4519 
z
" id="DejaVuSans-Bold-53" transform="scale(0.015625)"/>
      <path d="M 538 4863 
L 1656 4863 
L 1656 0 
L 538 0 
L 538 4863 
z
" id="DejaVuSans-Bold-6c" transform="scale(0.015625)"/>
      <path d="M 4031 1759 
L 4031 1441 
L 1416 1441 
Q 1456 1047 1700 850 
Q 1944 653 2381 653 
Q 2734 653 3104 758 
Q 3475 863 3866 1075 
L 3866 213 
Q 3469 63 3072 -14 
Q 2675 -91 2278 -91 
Q 1328 -91 801 392 
Q 275 875 275 1747 
Q 275 2603 792 3093 
Q 1309 3584 2216 3584 
Q 3041 3584 3536 3087 
Q 4031 2591 4031 1759 
z
M 2881 2131 
Q 2881 2450 2695 2645 
Q 2509 2841 2209 2841 
Q 1884 2841 1681 2658 
Q 1478 2475 1428 2131 
L 2881 2131 
z
" id="DejaVuSans-Bold-65" transform="scale(0.015625)"/>
      <path d="M 4288 256 
Q 3956 84 3597 -3 
Q 3238 -91 2847 -91 
Q 1681 -91 1000 561 
Q 319 1213 319 2328 
Q 319 3447 1000 4098 
Q 1681 4750 2847 4750 
Q 3238 4750 3597 4662 
Q 3956 4575 4288 4403 
L 4288 3438 
Q 3953 3666 3628 3772 
Q 3303 3878 2944 3878 
Q 2300 3878 1931 3465 
Q 1563 3053 1563 2328 
Q 1563 1606 1931 1193 
Q 2300 781 2944 781 
Q 3303 781 3628 887 
Q 3953 994 4288 1222 
L 4288 256 
z
" id="DejaVuSans-Bold-43" transform="scale(0.015625)"/>
      <path d="M 2203 2784 
Q 1831 2784 1636 2517 
Q 1441 2250 1441 1747 
Q 1441 1244 1636 976 
Q 1831 709 2203 709 
Q 2569 709 2762 976 
Q 2956 1244 2956 1747 
Q 2956 2250 2762 2517 
Q 2569 2784 2203 2784 
z
M 2203 3584 
Q 3106 3584 3614 3096 
Q 4122 2609 4122 1747 
Q 4122 884 3614 396 
Q 3106 -91 2203 -91 
Q 1297 -91 786 396 
Q 275 884 275 1747 
Q 275 2609 786 3096 
Q 1297 3584 2203 3584 
z
" id="DejaVuSans-Bold-6f" transform="scale(0.015625)"/>
      <path d="M 3781 2919 
Q 3994 3244 4286 3414 
Q 4578 3584 4928 3584 
Q 5531 3584 5847 3212 
Q 6163 2841 6163 2131 
L 6163 0 
L 5038 0 
L 5038 1825 
Q 5041 1866 5042 1909 
Q 5044 1953 5044 2034 
Q 5044 2406 4934 2573 
Q 4825 2741 4581 2741 
Q 4263 2741 4089 2478 
Q 3916 2216 3909 1719 
L 3909 0 
L 2784 0 
L 2784 1825 
Q 2784 2406 2684 2573 
Q 2584 2741 2328 2741 
Q 2006 2741 1831 2477 
Q 1656 2213 1656 1722 
L 1656 0 
L 531 0 
L 531 3500 
L 1656 3500 
L 1656 2988 
Q 1863 3284 2130 3434 
Q 2397 3584 2719 3584 
Q 3081 3584 3359 3409 
Q 3638 3234 3781 2919 
z
" id="DejaVuSans-Bold-6d" transform="scale(0.015625)"/>
      <path d="M 3272 3391 
L 3272 2541 
Q 2913 2691 2578 2766 
Q 2244 2841 1947 2841 
Q 1628 2841 1473 2761 
Q 1319 2681 1319 2516 
Q 1319 2381 1436 2309 
Q 1553 2238 1856 2203 
L 2053 2175 
Q 2913 2066 3209 1816 
Q 3506 1566 3506 1031 
Q 3506 472 3093 190 
Q 2681 -91 1863 -91 
Q 1516 -91 1145 -36 
Q 775 19 384 128 
L 384 978 
Q 719 816 1070 734 
Q 1422 653 1784 653 
Q 2113 653 2278 743 
Q 2444 834 2444 1013 
Q 2444 1163 2330 1236 
Q 2216 1309 1875 1350 
L 1678 1375 
Q 931 1469 631 1722 
Q 331 1975 331 2491 
Q 331 3047 712 3315 
Q 1094 3584 1881 3584 
Q 2191 3584 2531 3537 
Q 2872 3491 3272 3391 
z
" id="DejaVuSans-Bold-73" transform="scale(0.015625)"/>
      <path d="M 2413 -844 
L 1484 -844 
Q 1006 -72 778 623 
Q 550 1319 550 2003 
Q 550 2688 779 3389 
Q 1009 4091 1484 4856 
L 2413 4856 
Q 2013 4116 1813 3408 
Q 1613 2700 1613 2009 
Q 1613 1319 1811 609 
Q 2009 -100 2413 -844 
z
" id="DejaVuSans-Bold-28" transform="scale(0.015625)"/>
      <path d="M 1844 884 
L 3897 884 
L 3897 0 
L 506 0 
L 506 884 
L 2209 2388 
Q 2438 2594 2547 2791 
Q 2656 2988 2656 3200 
Q 2656 3528 2436 3728 
Q 2216 3928 1850 3928 
Q 1569 3928 1234 3808 
Q 900 3688 519 3450 
L 519 4475 
Q 925 4609 1322 4679 
Q 1719 4750 2100 4750 
Q 2938 4750 3402 4381 
Q 3866 4013 3866 3353 
Q 3866 2972 3669 2642 
Q 3472 2313 2841 1759 
L 1844 884 
z
" id="DejaVuSans-Bold-32" transform="scale(0.015625)"/>
      <path d="M 678 4666 
L 3669 4666 
L 3669 3781 
L 1638 3781 
L 1638 3059 
Q 1775 3097 1914 3117 
Q 2053 3138 2203 3138 
Q 3056 3138 3531 2711 
Q 4006 2284 4006 1522 
Q 4006 766 3489 337 
Q 2972 -91 2053 -91 
Q 1656 -91 1267 -14 
Q 878 63 494 219 
L 494 1166 
Q 875 947 1217 837 
Q 1559 728 1863 728 
Q 2300 728 2551 942 
Q 2803 1156 2803 1522 
Q 2803 1891 2551 2103 
Q 2300 2316 1863 2316 
Q 1603 2316 1309 2248 
Q 1016 2181 678 2041 
L 678 4666 
z
" id="DejaVuSans-Bold-35" transform="scale(0.015625)"/>
      <path d="M 513 -844 
Q 913 -100 1113 609 
Q 1313 1319 1313 2009 
Q 1313 2700 1113 3408 
Q 913 4116 513 4856 
L 1441 4856 
Q 1916 4091 2145 3389 
Q 2375 2688 2375 2003 
Q 2375 1319 2147 623 
Q 1919 -72 1441 -844 
L 513 -844 
z
" id="DejaVuSans-Bold-29" transform="scale(0.015625)"/>
     </defs>
     <use xlink:href="#DejaVuSans-Bold-53"/>
     <use x="72.021484" xlink:href="#DejaVuSans-Bold-75"/>
     <use x="143.212891" xlink:href="#DejaVuSans-Bold-70"/>
     <use x="214.794922" xlink:href="#DejaVuSans-Bold-72"/>
     <use x="264.111328" xlink:href="#DejaVuSans-Bold-61"/>
     <use x="331.591797" xlink:href="#DejaVuSans-Bold-6c"/>
     <use x="365.869141" xlink:href="#DejaVuSans-Bold-69"/>
     <use x="400.146484" xlink:href="#DejaVuSans-Bold-6e"/>
     <use x="471.337891" xlink:href="#DejaVuSans-Bold-65"/>
     <use x="539.160156" xlink:href="#DejaVuSans-Bold-61"/>
     <use x="606.640625" xlink:href="#DejaVuSans-Bold-72"/>
     <use x="655.957031" xlink:href="#DejaVuSans-Bold-20"/>
     <use x="690.771484" xlink:href="#DejaVuSans-Bold-43"/>
     <use x="764.160156" xlink:href="#DejaVuSans-Bold-6f"/>
     <use x="832.861328" xlink:href="#DejaVuSans-Bold-6d"/>
     <use x="937.060547" xlink:href="#DejaVuSans-Bold-70"/>
     <use x="1008.642578" xlink:href="#DejaVuSans-Bold-61"/>
     <use x="1076.123047" xlink:href="#DejaVuSans-Bold-72"/>
     <use x="1125.439453" xlink:href="#DejaVuSans-Bold-69"/>
     <use x="1159.716797" xlink:href="#DejaVuSans-Bold-73"/>
     <use x="1219.238281" xlink:href="#DejaVuSans-Bold-6f"/>
     <use x="1287.939453" xlink:href="#DejaVuSans-Bold-6e"/>
     <use x="1359.130859" xlink:href="#DejaVuSans-Bold-20"/>
     <use x="1393.945312" xlink:href="#DejaVuSans-Bold-28"/>
     <use x="1439.648438" xlink:href="#DejaVuSans-Bold-49"/>
     <use x="1476.855469" xlink:href="#DejaVuSans-Bold-53"/>
     <use x="1548.876953" xlink:href="#DejaVuSans-Bold-49"/>
     <use x="1586.083984" xlink:href="#DejaVuSans-Bold-20"/>
     <use x="1620.898438" xlink:href="#DejaVuSans-Bold-32"/>
     <use x="1690.478516" xlink:href="#DejaVuSans-Bold-35"/>
     <use x="1760.058594" xlink:href="#DejaVuSans-Bold-6d"/>
     <use x="1864.257812" xlink:href="#DejaVuSans-Bold-73"/>
     <use x="1923.779297" xlink:href="#DejaVuSans-Bold-29"/>
    </g>
   </g>
   <g id="legend_1">
    <g id="line2d_6">
     <path d="M 592.201247 80.030998 
L 608.861247 80.030998 
" style="fill:none;stroke:#5b84b1;stroke-dasharray:7.4,3.2;stroke-dashoffset:0;stroke-width:2;"/>
    </g>
    <g id="line2d_7"/>
    <g id="text_3">
     <!-- Expected -->
     <g transform="translate(615.525247 82.946498)scale(0.0833 -0.0833)">
      <defs>
       <path d="M 628 4666 
L 3578 4666 
L 3578 4134 
L 1259 4134 
L 1259 2753 
L 3481 2753 
L 3481 2222 
L 1259 2222 
L 1259 531 
L 3634 531 
L 3634 0 
L 628 0 
L 628 4666 
z
" id="DejaVuSans-45" transform="scale(0.015625)"/>
       <path d="M 3513 3500 
L 2247 1797 
L 3578 0 
L 2900 0 
L 1881 1375 
L 863 0 
L 184 0 
L 1544 1831 
L 300 3500 
L 978 3500 
L 1906 2253 
L 2834 3500 
L 3513 3500 
z
" id="DejaVuSans-78" transform="scale(0.015625)"/>
       <path d="M 1159 525 
L 1159 -1331 
L 581 -1331 
L 581 3500 
L 1159 3500 
L 1159 2969 
Q 1341 3281 1617 3432 
Q 1894 3584 2278 3584 
Q 2916 3584 3314 3078 
Q 3713 2572 3713 1747 
Q 3713 922 3314 415 
Q 2916 -91 2278 -91 
Q 1894 -91 1617 61 
Q 1341 213 1159 525 
z
M 3116 1747 
Q 3116 2381 2855 2742 
Q 2594 3103 2138 3103 
Q 1681 3103 1420 2742 
Q 1159 2381 1159 1747 
Q 1159 1113 1420 752 
Q 1681 391 2138 391 
Q 2594 391 2855 752 
Q 3116 1113 3116 1747 
z
" id="DejaVuSans-70" transform="scale(0.015625)"/>
       <path d="M 3597 1894 
L 3597 1613 
L 953 1613 
Q 991 1019 1311 708 
Q 1631 397 2203 397 
Q 2534 397 2845 478 
Q 3156 559 3463 722 
L 3463 178 
Q 3153 47 2828 -22 
Q 2503 -91 2169 -91 
Q 1331 -91 842 396 
Q 353 884 353 1716 
Q 353 2575 817 3079 
Q 1281 3584 2069 3584 
Q 2775 3584 3186 3129 
Q 3597 2675 3597 1894 
z
M 3022 2063 
Q 3016 2534 2758 2815 
Q 2500 3097 2075 3097 
Q 1594 3097 1305 2825 
Q 1016 2553 972 2059 
L 3022 2063 
z
" id="DejaVuSans-65" transform="scale(0.015625)"/>
       <path d="M 3122 3366 
L 3122 2828 
Q 2878 2963 2633 3030 
Q 2388 3097 2138 3097 
Q 1578 3097 1268 2742 
Q 959 2388 959 1747 
Q 959 1106 1268 751 
Q 1578 397 2138 397 
Q 2388 397 2633 464 
Q 2878 531 3122 666 
L 3122 134 
Q 2881 22 2623 -34 
Q 2366 -91 2075 -91 
Q 1284 -91 818 406 
Q 353 903 353 1747 
Q 353 2603 823 3093 
Q 1294 3584 2113 3584 
Q 2378 3584 2631 3529 
Q 2884 3475 3122 3366 
z
" id="DejaVuSans-63" transform="scale(0.015625)"/>
       <path d="M 1172 4494 
L 1172 3500 
L 2356 3500 
L 2356 3053 
L 1172 3053 
L 1172 1153 
Q 1172 725 1289 603 
Q 1406 481 1766 481 
L 2356 481 
L 2356 0 
L 1766 0 
Q 1100 0 847 248 
Q 594 497 594 1153 
L 594 3053 
L 172 3053 
L 172 3500 
L 594 3500 
L 594 4494 
L 1172 4494 
z
" id="DejaVuSans-74" transform="scale(0.015625)"/>
       <path d="M 2906 2969 
L 2906 4863 
L 3481 4863 
L 3481 0 
L 2906 0 
L 2906 525 
Q 2725 213 2448 61 
Q 2172 -91 1784 -91 
Q 1150 -91 751 415 
Q 353 922 353 1747 
Q 353 2572 751 3078 
Q 1150 3584 1784 3584 
Q 2172 3584 2448 3432 
Q 2725 3281 2906 2969 
z
M 947 1747 
Q 947 1113 1208 752 
Q 1469 391 1925 391 
Q 2381 391 2643 752 
Q 2906 1113 2906 1747 
Q 2906 2381 2643 2742 
Q 2381 3103 1925 3103 
Q 1469 3103 1208 2742 
Q 947 2381 947 1747 
z
" id="DejaVuSans-64" transform="scale(0.015625)"/>
      </defs>
      <use xlink:href="#DejaVuSans-45"/>
      <use x="63.183594" xlink:href="#DejaVuSans-78"/>
      <use x="122.363281" xlink:href="#DejaVuSans-70"/>
      <use x="185.839844" xlink:href="#DejaVuSans-65"/>
      <use x="247.363281" xlink:href="#DejaVuSans-63"/>
      <use x="302.34375" xlink:href="#DejaVuSans-74"/>
      <use x="341.552734" xlink:href="#DejaVuSans-65"/>
      <use x="403.076172" xlink:href="#DejaVuSans-64"/>
     </g>
    </g>
    <g id="line2d_8">
     <path d="M 592.201247 92.257877 
L 608.861247 92.257877 
" style="fill:none;stroke:#fc766a;stroke-linecap:square;stroke-width:2;"/>
    </g>
    <g id="line2d_9"/>
    <g id="text_4">
     <!-- Measured -->
     <g transform="translate(615.525247 95.173377)scale(0.0833 -0.0833)">
      <defs>
       <path d="M 628 4666 
L 1569 4666 
L 2759 1491 
L 3956 4666 
L 4897 4666 
L 4897 0 
L 4281 0 
L 4281 4097 
L 3078 897 
L 2444 897 
L 1241 4097 
L 1241 0 
L 628 0 
L 628 4666 
z
" id="DejaVuSans-4d" transform="scale(0.015625)"/>
       <path d="M 2194 1759 
Q 1497 1759 1228 1600 
Q 959 1441 959 1056 
Q 959 750 1161 570 
Q 1363 391 1709 391 
Q 2188 391 2477 730 
Q 2766 1069 2766 1631 
L 2766 1759 
L 2194 1759 
z
M 3341 1997 
L 3341 0 
L 2766 0 
L 2766 531 
Q 2569 213 2275 61 
Q 1981 -91 1556 -91 
Q 1019 -91 701 211 
Q 384 513 384 1019 
Q 384 1609 779 1909 
Q 1175 2209 1959 2209 
L 2766 2209 
L 2766 2266 
Q 2766 2663 2505 2880 
Q 2244 3097 1772 3097 
Q 1472 3097 1187 3025 
Q 903 2953 641 2809 
L 641 3341 
Q 956 3463 1253 3523 
Q 1550 3584 1831 3584 
Q 2591 3584 2966 3190 
Q 3341 2797 3341 1997 
z
" id="DejaVuSans-61" transform="scale(0.015625)"/>
       <path d="M 2834 3397 
L 2834 2853 
Q 2591 2978 2328 3040 
Q 2066 3103 1784 3103 
Q 1356 3103 1142 2972 
Q 928 2841 928 2578 
Q 928 2378 1081 2264 
Q 1234 2150 1697 2047 
L 1894 2003 
Q 2506 1872 2764 1633 
Q 3022 1394 3022 966 
Q 3022 478 2636 193 
Q 2250 -91 1575 -91 
Q 1294 -91 989 -36 
Q 684 19 347 128 
L 347 722 
Q 666 556 975 473 
Q 1284 391 1588 391 
Q 1994 391 2212 530 
Q 2431 669 2431 922 
Q 2431 1156 2273 1281 
Q 2116 1406 1581 1522 
L 1381 1569 
Q 847 1681 609 1914 
Q 372 2147 372 2553 
Q 372 3047 722 3315 
Q 1072 3584 1716 3584 
Q 2034 3584 2315 3537 
Q 2597 3491 2834 3397 
z
" id="DejaVuSans-73" transform="scale(0.015625)"/>
       <path d="M 544 1381 
L 544 3500 
L 1119 3500 
L 1119 1403 
Q 1119 906 1312 657 
Q 1506 409 1894 409 
Q 2359 409 2629 706 
Q 2900 1003 2900 1516 
L 2900 3500 
L 3475 3500 
L 3475 0 
L 2900 0 
L 2900 538 
Q 2691 219 2414 64 
Q 2138 -91 1772 -91 
Q 1169 -91 856 284 
Q 544 659 544 1381 
z
M 1991 3584 
L 1991 3584 
z
" id="DejaVuSans-75" transform="scale(0.015625)"/>
       <path d="M 2631 2963 
Q 2534 3019 2420 3045 
Q 2306 3072 2169 3072 
Q 1681 3072 1420 2755 
Q 1159 2438 1159 1844 
L 1159 0 
L 581 0 
L 581 3500 
L 1159 3500 
L 1159 2956 
Q 1341 3275 1631 3429 
Q 1922 3584 2338 3584 
Q 2397 3584 2469 3576 
Q 2541 3569 2628 3553 
L 2631 2963 
z
" id="DejaVuSans-72" transform="scale(0.015625)"/>
      </defs>
      <use xlink:href="#DejaVuSans-4d"/>
      <use x="86.279297" xlink:href="#DejaVuSans-65"/>
      <use x="147.802734" xlink:href="#DejaVuSans-61"/>
      <use x="209.082031" xlink:href="#DejaVuSans-73"/>
      <use x="261.181641" xlink:href="#DejaVuSans-75"/>
      <use x="324.560547" xlink:href="#DejaVuSans-72"/>
      <use x="363.423828" xlink:href="#DejaVuSans-65"/>
      <use x="424.947266" xlink:href="#DejaVuSans-64"/>
     </g>
    </g>
   </g>
  </g>
  <g id="axes_3">
   <g id="line2d_10">
    <path clip-path="url(#paa12b4f5a7)" d="M 703.829752 245.52 
L 749.02314 245.52 
L 749.797884 221.490103 
L 750.508066 205.811553 
L 751.218248 194.675036 
L 751.92843 186.960708 
L 752.57405 182.198287 
L 753.155107 179.320957 
L 753.736165 177.485466 
L 754.252661 176.546739 
L 754.704595 176.155143 
L 755.091967 176.082313 
L 755.543901 176.251473 
L 756.060397 176.719039 
L 756.706017 177.625485 
L 757.609884 179.32856 
L 758.901124 182.304674 
L 761.419041 188.817024 
L 764.776264 197.32995 
L 767.22962 202.942144 
L 769.553851 207.711313 
L 771.813521 211.856515 
L 774.137752 215.655453 
L 776.461983 219.029387 
L 778.850777 222.101826 
L 781.23957 224.818548 
L 781.304132 224.887429 
L 782.014314 176.500557 
L 782.724496 141.667887 
L 783.434678 117.061462 
L 784.080298 101.428673 
L 784.725917 90.697901 
L 785.306975 84.290631 
L 785.823471 80.629048 
L 786.275405 78.690364 
L 786.662777 77.804655 
L 786.985587 77.529831 
L 787.243835 77.573412 
L 787.566645 77.916314 
L 787.954017 78.694237 
L 788.470512 80.248128 
L 789.180694 83.135132 
L 790.213686 88.407534 
L 791.763174 97.631174 
L 797.767438 134.389783 
L 800.091669 146.759668 
L 802.286777 157.264064 
L 804.481884 166.687308 
L 806.61243 174.885068 
L 808.742975 182.236718 
L 810.938083 189.014614 
L 813.13319 195.067835 
L 815.328298 200.473137 
L 817.523405 205.299562 
L 819.783074 209.728473 
L 822.042744 213.669734 
L 824.302413 217.177013 
L 826.626645 220.382019 
L 829.015438 223.298802 
L 831.468793 225.942517 
L 833.986711 228.329101 
L 836.56919 230.474984 
L 839.280793 232.440491 
L 842.121521 234.224774 
L 845.091372 235.830462 
L 848.254909 237.290597 
L 851.676694 238.623274 
L 855.356727 239.816689 
L 859.424132 240.896986 
L 863.878909 241.84686 
L 868.914744 242.68782 
L 874.66076 243.414864 
L 881.310645 244.026613 
L 889.316331 244.532211 
L 897.515702 244.873136 
L 897.515702 244.873136 
" style="fill:none;stroke:#0000ff;stroke-linecap:square;stroke-width:2;"/>
   </g>
   <g id="line2d_11">
    <path clip-path="url(#paa12b4f5a7)" d="M 694.145455 245.52 
L 907.2 245.52 
" style="fill:none;stroke:#808080;stroke-dasharray:1,1.65;stroke-dashoffset:0;stroke-opacity:0.7;"/>
   </g>
   <g id="text_5">
    <!-- Supralinear Trace -->
    <g transform="translate(741.15929 59.12)scale(0.12 -0.12)">
     <defs>
      <path d="M 31 4666 
L 4331 4666 
L 4331 3756 
L 2784 3756 
L 2784 0 
L 1581 0 
L 1581 3756 
L 31 3756 
L 31 4666 
z
" id="DejaVuSans-Bold-54" transform="scale(0.015625)"/>
      <path d="M 3366 3391 
L 3366 2478 
Q 3138 2634 2908 2709 
Q 2678 2784 2431 2784 
Q 1963 2784 1702 2511 
Q 1441 2238 1441 1747 
Q 1441 1256 1702 982 
Q 1963 709 2431 709 
Q 2694 709 2930 787 
Q 3166 866 3366 1019 
L 3366 103 
Q 3103 6 2833 -42 
Q 2563 -91 2291 -91 
Q 1344 -91 809 395 
Q 275 881 275 1747 
Q 275 2613 809 3098 
Q 1344 3584 2291 3584 
Q 2566 3584 2833 3536 
Q 3100 3488 3366 3391 
z
" id="DejaVuSans-Bold-63" transform="scale(0.015625)"/>
     </defs>
     <use xlink:href="#DejaVuSans-Bold-53"/>
     <use x="72.021484" xlink:href="#DejaVuSans-Bold-75"/>
     <use x="143.212891" xlink:href="#DejaVuSans-Bold-70"/>
     <use x="214.794922" xlink:href="#DejaVuSans-Bold-72"/>
     <use x="264.111328" xlink:href="#DejaVuSans-Bold-61"/>
     <use x="331.591797" xlink:href="#DejaVuSans-Bold-6c"/>
     <use x="365.869141" xlink:href="#DejaVuSans-Bold-69"/>
     <use x="400.146484" xlink:href="#DejaVuSans-Bold-6e"/>
     <use x="471.337891" xlink:href="#DejaVuSans-Bold-65"/>
     <use x="539.160156" xlink:href="#DejaVuSans-Bold-61"/>
     <use x="606.640625" xlink:href="#DejaVuSans-Bold-72"/>
     <use x="655.957031" xlink:href="#DejaVuSans-Bold-20"/>
     <use x="690.771484" xlink:href="#DejaVuSans-Bold-54"/>
     <use x="747.984375" xlink:href="#DejaVuSans-Bold-72"/>
     <use x="797.300781" xlink:href="#DejaVuSans-Bold-61"/>
     <use x="864.78125" xlink:href="#DejaVuSans-Bold-63"/>
     <use x="924.058594" xlink:href="#DejaVuSans-Bold-65"/>
    </g>
   </g>
  </g>
  <g id="axes_4">
   <g id="line2d_12">
    <path clip-path="url(#pd5e6df6d78)" d="M 131.995041 504.24 
L 139.98843 504.24 
L 140.587934 434.483055 
L 141.147471 392.303871 
L 141.707008 365.443091 
L 142.226579 350.125893 
L 142.706182 341.832543 
L 143.105851 338.059906 
L 143.465554 336.506431 
L 143.705355 336.24 
L 143.865223 336.348111 
L 144.105025 336.878429 
L 144.464727 338.364332 
L 144.984298 341.620911 
L 145.783636 348.288592 
L 147.262413 362.95072 
L 150.140033 391.362659 
L 151.938545 406.838103 
L 153.657124 419.765936 
L 155.335736 430.775207 
L 157.014347 440.36348 
L 158.692959 448.705168 
L 160.37157 455.959198 
L 162.050182 462.266288 
L 163.76876 467.871099 
L 165.487339 472.727565 
L 167.205917 476.935555 
L 168.964463 480.660373 
L 170.723008 483.877061 
L 172.521521 486.713456 
L 174.36 489.204964 
L 176.238446 491.385209 
L 178.196826 493.322323 
L 180.23514 495.02914 
L 182.393355 496.546443 
L 184.671471 497.877743 
L 187.149421 499.065635 
L 189.827207 500.101294 
L 192.824727 501.016772 
L 196.18195 501.803937 
L 200.058744 502.476942 
L 204.614975 503.034313 
L 210.17038 503.481402 
L 217.324463 503.822283 
L 227.276231 504.057855 
L 243.50281 504.192938 
L 251.895868 504.21663 
L 251.895868 504.21663 
" style="fill:none;stroke:#000000;stroke-linecap:square;stroke-width:2;"/>
   </g>
   <g id="line2d_13">
    <path clip-path="url(#pd5e6df6d78)" d="M 126 504.24 
L 257.890909 504.24 
" style="fill:none;stroke:#808080;stroke-dasharray:1,1.65;stroke-dashoffset:0;stroke-opacity:0.7;"/>
   </g>
   <g id="text_6">
    <!-- Unitary Input -->
    <g transform="translate(146.93233 317.84)scale(0.12 -0.12)">
     <use xlink:href="#DejaVuSans-Bold-55"/>
     <use x="81.201172" xlink:href="#DejaVuSans-Bold-6e"/>
     <use x="152.392578" xlink:href="#DejaVuSans-Bold-69"/>
     <use x="186.669922" xlink:href="#DejaVuSans-Bold-74"/>
     <use x="234.472656" xlink:href="#DejaVuSans-Bold-61"/>
     <use x="301.953125" xlink:href="#DejaVuSans-Bold-72"/>
     <use x="351.269531" xlink:href="#DejaVuSans-Bold-79"/>
     <use x="416.455078" xlink:href="#DejaVuSans-Bold-20"/>
     <use x="451.269531" xlink:href="#DejaVuSans-Bold-49"/>
     <use x="488.476562" xlink:href="#DejaVuSans-Bold-6e"/>
     <use x="559.667969" xlink:href="#DejaVuSans-Bold-70"/>
     <use x="631.25" xlink:href="#DejaVuSans-Bold-75"/>
     <use x="702.441406" xlink:href="#DejaVuSans-Bold-74"/>
    </g>
   </g>
  </g>
  <g id="axes_5">
   <g id="line2d_14">
    <path clip-path="url(#p773f421aae)" d="M 305.390083 504.24 
L 328.140496 504.24 
L 329.164264 468.271425 
L 330.074281 443.33205 
L 330.984298 423.741246 
L 331.894314 408.507698 
L 332.804331 396.82036 
L 333.714347 388.01576 
L 334.510612 382.247342 
L 335.306876 377.968378 
L 336.10314 374.926752 
L 336.785653 373.143304 
L 337.468165 372.000258 
L 338.036926 371.466536 
L 338.605686 371.261179 
L 339.174446 371.341214 
L 339.743207 371.668787 
L 340.425719 372.341977 
L 341.221983 373.451036 
L 342.245752 375.287226 
L 343.497025 378.003244 
L 345.203306 382.270436 
L 347.819603 389.483563 
L 355.32724 410.455699 
L 358.62605 418.871927 
L 361.697355 426.115221 
L 364.768661 432.786256 
L 367.726215 438.691787 
L 370.683769 444.119659 
L 373.755074 449.286781 
L 376.82638 454.01279 
L 379.897686 458.333877 
L 382.968992 462.283991 
L 385.016529 464.726946 
L 386.040298 429.926025 
L 386.950314 405.995583 
L 387.860331 387.387182 
L 388.770347 373.1102 
L 389.680364 362.354267 
L 390.476628 355.307032 
L 391.272893 350.079065 
L 392.069157 346.36243 
L 392.751669 344.182795 
L 393.32043 342.969206 
L 393.88919 342.229132 
L 394.344198 341.936688 
L 394.799207 341.880147 
L 395.254215 342.034305 
L 395.822975 342.488821 
L 396.505488 343.366513 
L 397.301752 344.774164 
L 398.325521 347.069796 
L 399.690545 350.762912 
L 401.510579 356.423866 
L 404.468132 366.493325 
L 410.610744 387.507776 
L 413.909554 397.944087 
L 416.98086 406.944933 
L 419.938413 414.948624 
L 422.895967 422.322991 
L 425.853521 429.103493 
L 428.811074 435.330668 
L 431.768628 441.045876 
L 434.726182 446.289232 
L 437.797488 451.275462 
L 440.868793 455.833281 
L 441.892562 457.263747 
L 442.802579 426.082319 
L 443.712595 401.597716 
L 444.622612 382.568521 
L 445.532628 367.979074 
L 446.442645 356.998523 
L 447.238909 349.813568 
L 448.035174 344.492997 
L 448.831438 340.721101 
L 449.51395 338.518854 
L 450.082711 337.301188 
L 450.651471 336.568584 
L 451.106479 336.289388 
L 451.561488 336.251794 
L 452.016496 336.429962 
L 452.585256 336.920746 
L 453.267769 337.84983 
L 454.064033 339.326423 
L 455.087802 341.721867 
L 456.452826 345.562159 
L 458.27286 351.434741 
L 461.230413 361.862643 
L 467.373025 383.597465 
L 470.671835 394.385987 
L 473.74314 403.68933 
L 476.700694 411.961432 
L 479.658248 419.582817 
L 482.615802 426.590294 
L 485.573355 433.025843 
L 488.530909 438.932253 
L 491.488463 444.351005 
L 494.446017 449.321302 
L 497.517322 454.047273 
L 500.588628 458.366886 
L 503.659934 462.314919 
L 506.844992 466.05076 
L 510.03005 469.453756 
L 513.32886 472.658982 
L 516.741421 475.664299 
L 520.267736 478.469675 
L 523.907802 481.076978 
L 527.66162 483.489773 
L 531.52919 485.713097 
L 535.624264 487.808111 
L 539.946843 489.763057 
L 544.496926 491.570166 
L 549.274512 493.225375 
L 554.393355 494.759625 
L 559.853455 496.161357 
L 565.768562 497.447014 
L 572.25243 498.622478 
L 579.305058 499.671322 
L 587.15395 500.610032 
L 596.026612 501.441107 
L 606.150545 502.159606 
L 617.98076 502.769076 
L 632.199769 503.270307 
L 646.646281 503.604987 
L 646.646281 503.604987 
" style="fill:none;stroke:#5b84b1;stroke-dasharray:7.4,3.2;stroke-dashoffset:0;stroke-width:2;"/>
   </g>
   <g id="line2d_15">
    <path clip-path="url(#p773f421aae)" d="M 305.390083 504.24 
L 328.140496 504.24 
L 329.164264 468.271425 
L 330.074281 443.33205 
L 330.984298 423.741246 
L 331.894314 408.507698 
L 332.804331 396.82036 
L 333.714347 388.01576 
L 334.510612 382.247342 
L 335.306876 377.968378 
L 336.10314 374.926752 
L 336.785653 373.143304 
L 337.468165 372.000258 
L 338.036926 371.466536 
L 338.605686 371.261179 
L 339.174446 371.341214 
L 339.743207 371.668787 
L 340.425719 372.341977 
L 341.221983 373.451036 
L 342.245752 375.287226 
L 343.497025 378.003244 
L 345.203306 382.270436 
L 347.819603 389.483563 
L 355.32724 410.455699 
L 358.62605 418.871927 
L 361.697355 426.115221 
L 364.768661 432.786256 
L 367.726215 438.691787 
L 370.683769 444.119659 
L 373.755074 449.286781 
L 376.82638 454.01279 
L 379.897686 458.333877 
L 382.968992 462.283991 
L 385.016529 464.726946 
L 385.926545 443.074365 
L 386.836562 426.104979 
L 387.746579 412.949914 
L 388.656595 402.898326 
L 389.566612 395.368731 
L 390.362876 390.473069 
L 391.15914 386.879392 
L 391.841653 384.666899 
L 392.524165 383.1301 
L 393.092926 382.291993 
L 393.661686 381.801432 
L 394.230446 381.613465 
L 394.799207 381.688485 
L 395.367967 381.991611 
L 396.050479 382.613471 
L 396.846744 383.637223 
L 397.870512 385.331504 
L 399.235537 388.083426 
L 401.05557 392.329045 
L 403.899372 399.617358 
L 410.496992 416.648022 
L 413.795802 424.489514 
L 416.98086 431.487431 
L 420.052165 437.69644 
L 423.123471 443.396923 
L 426.194777 448.619947 
L 429.266083 453.400141 
L 432.337388 457.772324 
L 435.408694 461.769938 
L 438.593752 465.553513 
L 441.77881 469.000406 
L 441.892562 469.117663 
L 442.802579 455.453943 
L 443.712595 444.794118 
L 444.622612 436.579805 
L 445.532628 430.354202 
L 446.442645 425.743668 
L 447.238909 422.792668 
L 448.035174 420.674134 
L 448.717686 419.412598 
L 449.400198 418.582253 
L 450.082711 418.117978 
L 450.651471 417.97011 
L 451.333983 418.03738 
L 452.016496 418.331894 
L 452.81276 418.91452 
L 453.836529 419.967912 
L 455.087802 421.607806 
L 456.680331 424.081832 
L 459.069124 428.256849 
L 468.965554 446.014122 
L 472.264364 451.275235 
L 475.449421 455.945709 
L 478.634479 460.224777 
L 481.819537 464.134843 
L 485.004595 467.702592 
L 488.303405 471.066141 
L 491.715967 474.221538 
L 495.128529 477.077457 
L 498.654843 479.74376 
L 502.294909 482.222 
L 506.162479 484.581087 
L 510.143802 486.745859 
L 514.352628 488.775709 
L 518.788959 490.660871 
L 523.452793 492.395454 
L 528.344132 493.977112 
L 533.576727 495.436046 
L 539.264331 496.787613 
L 545.406942 498.015244 
L 552.118314 499.126584 
L 559.512198 500.122686 
L 567.816099 501.011984 
L 577.257521 501.792172 
L 588.063967 502.456577 
L 600.91795 503.016314 
L 616.615736 503.467507 
L 636.749851 503.811786 
L 646.646281 503.919583 
L 646.646281 503.919583 
" style="fill:none;stroke:#000080;stroke-linecap:square;stroke-width:2;"/>
   </g>
   <g id="line2d_16">
    <path clip-path="url(#p773f421aae)" d="M 288.327273 504.24 
L 663.709091 504.24 
" style="fill:none;stroke:#808080;stroke-dasharray:1,1.65;stroke-dashoffset:0;stroke-opacity:0.7;"/>
   </g>
   <g id="text_7">
    <!-- Sublinear Comparison (ISI 25ms) -->
    <g transform="translate(364.858807 317.84)scale(0.12 -0.12)">
     <defs>
      <path d="M 2400 722 
Q 2759 722 2948 984 
Q 3138 1247 3138 1747 
Q 3138 2247 2948 2509 
Q 2759 2772 2400 2772 
Q 2041 2772 1848 2508 
Q 1656 2244 1656 1747 
Q 1656 1250 1848 986 
Q 2041 722 2400 722 
z
M 1656 2988 
Q 1888 3294 2169 3439 
Q 2450 3584 2816 3584 
Q 3463 3584 3878 3070 
Q 4294 2556 4294 1747 
Q 4294 938 3878 423 
Q 3463 -91 2816 -91 
Q 2450 -91 2169 54 
Q 1888 200 1656 506 
L 1656 0 
L 538 0 
L 538 4863 
L 1656 4863 
L 1656 2988 
z
" id="DejaVuSans-Bold-62" transform="scale(0.015625)"/>
     </defs>
     <use xlink:href="#DejaVuSans-Bold-53"/>
     <use x="72.021484" xlink:href="#DejaVuSans-Bold-75"/>
     <use x="143.212891" xlink:href="#DejaVuSans-Bold-62"/>
     <use x="214.794922" xlink:href="#DejaVuSans-Bold-6c"/>
     <use x="249.072266" xlink:href="#DejaVuSans-Bold-69"/>
     <use x="283.349609" xlink:href="#DejaVuSans-Bold-6e"/>
     <use x="354.541016" xlink:href="#DejaVuSans-Bold-65"/>
     <use x="422.363281" xlink:href="#DejaVuSans-Bold-61"/>
     <use x="489.84375" xlink:href="#DejaVuSans-Bold-72"/>
     <use x="539.160156" xlink:href="#DejaVuSans-Bold-20"/>
     <use x="573.974609" xlink:href="#DejaVuSans-Bold-43"/>
     <use x="647.363281" xlink:href="#DejaVuSans-Bold-6f"/>
     <use x="716.064453" xlink:href="#DejaVuSans-Bold-6d"/>
     <use x="820.263672" xlink:href="#DejaVuSans-Bold-70"/>
     <use x="891.845703" xlink:href="#DejaVuSans-Bold-61"/>
     <use x="959.326172" xlink:href="#DejaVuSans-Bold-72"/>
     <use x="1008.642578" xlink:href="#DejaVuSans-Bold-69"/>
     <use x="1042.919922" xlink:href="#DejaVuSans-Bold-73"/>
     <use x="1102.441406" xlink:href="#DejaVuSans-Bold-6f"/>
     <use x="1171.142578" xlink:href="#DejaVuSans-Bold-6e"/>
     <use x="1242.333984" xlink:href="#DejaVuSans-Bold-20"/>
     <use x="1277.148438" xlink:href="#DejaVuSans-Bold-28"/>
     <use x="1322.851562" xlink:href="#DejaVuSans-Bold-49"/>
     <use x="1360.058594" xlink:href="#DejaVuSans-Bold-53"/>
     <use x="1432.080078" xlink:href="#DejaVuSans-Bold-49"/>
     <use x="1469.287109" xlink:href="#DejaVuSans-Bold-20"/>
     <use x="1504.101562" xlink:href="#DejaVuSans-Bold-32"/>
     <use x="1573.681641" xlink:href="#DejaVuSans-Bold-35"/>
     <use x="1643.261719" xlink:href="#DejaVuSans-Bold-6d"/>
     <use x="1747.460938" xlink:href="#DejaVuSans-Bold-73"/>
     <use x="1806.982422" xlink:href="#DejaVuSans-Bold-29"/>
    </g>
   </g>
   <g id="legend_2">
    <g id="line2d_17">
     <path d="M 592.201247 338.750998 
L 608.861247 338.750998 
" style="fill:none;stroke:#5b84b1;stroke-dasharray:7.4,3.2;stroke-dashoffset:0;stroke-width:2;"/>
    </g>
    <g id="line2d_18"/>
    <g id="text_8">
     <!-- Expected -->
     <g transform="translate(615.525247 341.666498)scale(0.0833 -0.0833)">
      <use xlink:href="#DejaVuSans-45"/>
      <use x="63.183594" xlink:href="#DejaVuSans-78"/>
      <use x="122.363281" xlink:href="#DejaVuSans-70"/>
      <use x="185.839844" xlink:href="#DejaVuSans-65"/>
      <use x="247.363281" xlink:href="#DejaVuSans-63"/>
      <use x="302.34375" xlink:href="#DejaVuSans-74"/>
      <use x="341.552734" xlink:href="#DejaVuSans-65"/>
      <use x="403.076172" xlink:href="#DejaVuSans-64"/>
     </g>
    </g>
    <g id="line2d_19">
     <path d="M 592.201247 350.977877 
L 608.861247 350.977877 
" style="fill:none;stroke:#000080;stroke-linecap:square;stroke-width:2;"/>
    </g>
    <g id="line2d_20"/>
    <g id="text_9">
     <!-- Measured -->
     <g transform="translate(615.525247 353.893377)scale(0.0833 -0.0833)">
      <use xlink:href="#DejaVuSans-4d"/>
      <use x="86.279297" xlink:href="#DejaVuSans-65"/>
      <use x="147.802734" xlink:href="#DejaVuSans-61"/>
      <use x="209.082031" xlink:href="#DejaVuSans-73"/>
      <use x="261.181641" xlink:href="#DejaVuSans-75"/>
      <use x="324.560547" xlink:href="#DejaVuSans-72"/>
      <use x="363.423828" xlink:href="#DejaVuSans-65"/>
      <use x="424.947266" xlink:href="#DejaVuSans-64"/>
     </g>
    </g>
   </g>
  </g>
  <g id="axes_6">
   <g id="line2d_21">
    <path clip-path="url(#p228e8fffc1)" d="M 703.829752 336.24 
L 749.02314 336.24 
L 749.797884 364.558778 
L 750.508066 383.035651 
L 751.218248 396.159826 
L 751.92843 405.251015 
L 752.57405 410.863438 
L 753.155107 414.254316 
L 753.736165 416.417409 
L 754.252661 417.52368 
L 754.704595 417.985169 
L 755.091967 418.070998 
L 755.479339 417.917705 
L 755.931273 417.486772 
L 756.512331 416.610746 
L 757.287074 415.017555 
L 758.384628 412.205421 
L 760.192364 406.857511 
L 765.099074 392.121542 
L 767.487868 385.761755 
L 769.747537 380.356302 
L 772.007207 375.518217 
L 774.266876 371.201275 
L 776.526545 367.354863 
L 778.850777 363.837874 
L 781.175008 360.717714 
L 781.304132 360.555093 
L 782.014314 407.928384 
L 782.724496 441.995783 
L 783.434678 466.025378 
L 784.080298 481.258819 
L 784.725917 491.682049 
L 785.306975 497.87405 
L 785.823471 501.383244 
L 786.275405 503.21315 
L 786.662777 504.020897 
L 786.985587 504.24 
L 787.243835 504.157171 
L 787.566645 503.771126 
L 788.018579 502.77827 
L 788.599636 500.870265 
L 789.37438 497.494198 
L 790.471934 491.629668 
L 792.279669 480.591695 
L 796.928132 451.88287 
L 799.252364 439.073342 
L 801.447471 428.160367 
L 803.642579 418.356385 
L 805.837686 409.577098 
L 807.968231 401.94596 
L 810.163339 394.909367 
L 812.358446 388.62466 
L 814.553554 383.012459 
L 816.748661 378.001211 
L 818.943769 373.526743 
L 821.203438 369.420845 
L 823.463107 365.767051 
L 825.787339 362.428154 
L 828.176132 359.389519 
L 830.564926 356.703458 
L 833.082843 354.208869 
L 835.665322 351.965875 
L 838.312364 349.957067 
L 841.088529 348.125361 
L 844.05838 346.435782 
L 847.157355 344.928273 
L 850.514579 343.545597 
L 854.13005 342.301602 
L 858.068331 341.186305 
L 862.393983 340.196293 
L 867.236132 339.321164 
L 872.723901 338.560944 
L 879.050975 337.914153 
L 886.604727 337.373497 
L 895.901653 336.941389 
L 897.515702 336.885309 
L 897.515702 336.885309 
" style="fill:none;stroke:#800080;stroke-linecap:square;stroke-width:2;"/>
   </g>
   <g id="line2d_22">
    <path clip-path="url(#p228e8fffc1)" d="M 694.145455 336.24 
L 907.2 336.24 
" style="fill:none;stroke:#808080;stroke-dasharray:1,1.65;stroke-dashoffset:0;stroke-opacity:0.7;"/>
   </g>
   <g id="text_10">
    <!-- Sublinear Trace -->
    <g transform="translate(748.167102 317.84)scale(0.12 -0.12)">
     <use xlink:href="#DejaVuSans-Bold-53"/>
     <use x="72.021484" xlink:href="#DejaVuSans-Bold-75"/>
     <use x="143.212891" xlink:href="#DejaVuSans-Bold-62"/>
     <use x="214.794922" xlink:href="#DejaVuSans-Bold-6c"/>
     <use x="249.072266" xlink:href="#DejaVuSans-Bold-69"/>
     <use x="283.349609" xlink:href="#DejaVuSans-Bold-6e"/>
     <use x="354.541016" xlink:href="#DejaVuSans-Bold-65"/>
     <use x="422.363281" xlink:href="#DejaVuSans-Bold-61"/>
     <use x="489.84375" xlink:href="#DejaVuSans-Bold-72"/>
     <use x="539.160156" xlink:href="#DejaVuSans-Bold-20"/>
     <use x="573.974609" xlink:href="#DejaVuSans-Bold-54"/>
     <use x="631.1875" xlink:href="#DejaVuSans-Bold-72"/>
     <use x="680.503906" xlink:href="#DejaVuSans-Bold-61"/>
     <use x="747.984375" xlink:href="#DejaVuSans-Bold-63"/>
     <use x="807.261719" xlink:href="#DejaVuSans-Bold-65"/>
    </g>
   </g>
  </g>
 </g>
 <defs>
  <clipPath id="pb05e26cabe">
   <rect height="184.8" width="131.890909" x="126" y="69.12"/>
  </clipPath>
  <clipPath id="pc499b00357">
   <rect height="184.8" width="375.381818" x="288.327273" y="69.12"/>
  </clipPath>
  <clipPath id="paa12b4f5a7">
   <rect height="184.8" width="213.054545" x="694.145455" y="69.12"/>
  </clipPath>
  <clipPath id="pd5e6df6d78">
   <rect height="184.8" width="131.890909" x="126" y="327.84"/>
  </clipPath>
  <clipPath id="p773f421aae">
   <rect height="184.8" width="375.381818" x="288.327273" y="327.84"/>
  </clipPath>
  <clipPath id="p228e8fffc1">
   <rect height="184.8" width="213.054545" x="694.145455" y="327.84"/>
  </clipPath>
 </defs>
</svg>
